<?xml version="1.0" standalone="no"?><!DOCTYPE svg PUBLIC "-//W3C//DTD SVG 1.1//EN" "http://www.w3.org/Graphics/SVG/1.1/DTD/svg11.dtd"><svg t="1689236150673" class="icon" viewBox="0 0 1024 1024" version="1.1" xmlns="http://www.w3.org/2000/svg" p-id="6919" id="mx_n_1689236150674" xmlns:xlink="http://www.w3.org/1999/xlink" width="200" height="200"><path d="M1024 512c0 282.8-229.2 512-512 512S0 794.8 0 512 229.2 0 512 0s512 229.2 512 512" fill="#5A89FF" p-id="6920"></path><path d="M602.48 752.48h-328v-480.8h328v116.88h48V247.52c0-13.28-10.72-24-24-24-0.8 0-1.52 0-2.32 0.08H250.48c-13.28 0-24 10.72-24 24v528.8c0 13.28 10.72 24 24 24h376c13.28 0 24-10.72 24-24V635.44h-48v117.04z" fill="#FFFFFF" p-id="6921"></path><path d="M863.28 495.04L757.76 389.52l-33.92 33.92L788.4 488H391.92v48h396.48l-64.56 64.56 33.92 33.92 105.52-105.52c4.48-4.48 7.04-10.64 7.04-16.96s-2.48-12.48-7.04-16.96z" fill="#FFFFFF" p-id="6922"></path></svg>